<svg id="svg2" xmlns="http://www.w3.org/2000/svg" viewBox="0 0 753 753"><defs><style>.cls-1{fill:#bc002d;}.cls-2{fill:#fff;}</style></defs><circle class="cls-1" cx="376.5" cy="376.5" r="376.5"/><g id="layer1"><path id="path4100-7" class="cls-2" d="M426.66,780,493,839l13.29-46.3-71.76-71.08c3.5-28.66,6.49-57,9.16-85.22,3.92,6.72,12.63,12.09,19.9,12.27,9.09.23,20.21-9.61,19.91-18.69l-2-58.73c-.26-7.82-13-12.14-20.7-10.91a24.1,24.1,0,0,0-10.94,5.07c2.19-27.53,4.16-55,6.15-82.45l25.15,15.43,1.32,28.31c1.19,25.8,24.44,22.82,28.28,1.83l2-10.77L730.4,651.51l6.22-30.67L460,353.19l-2.53-178.94c-.49-35-17.57-52.22-35-52.22s-34.48,17.23-35,52.22L385,353.19,108.38,620.84l6.22,30.67L332.27,517.73l2,10.77c3.84,21,27.09,24,28.28-1.83l1.32-28.31L389,482.93c2,27.44,4,54.92,6.15,82.45a24.1,24.1,0,0,0-10.94-5.07c-7.72-1.23-20.44,3.09-20.7,10.91l-2,58.73c-.3,9.08,10.82,18.92,19.91,18.69,7.27-.18,16-5.55,19.9-12.27,2.67,28.26,5.66,56.56,9.16,85.22l-71.76,71.08L352,839,418.34,780c1.33,9.06,2.61,26,4.16,35.16,1.55-9.13,2.83-26.1,4.16-35.16Z" transform="translate(-46 -104)"/></g></svg>